<?xml version="1.0" encoding="UTF-8"?>
<!DOCTYPE svg PUBLIC "-//W3C//DTD SVG 1.1//EN" "http://www.w3.org/Graphics/SVG/1.1/DTD/svg11.dtd">
<!-- Created HDS 2004.1a -->


<svg xmlns="http://www.w3.org/2000/svg" xmlns:xlink="http://www.w3.org/1999/xlink" version="1.1">
<script xlink:href="../../scripts/SVGPan.js" />
<g id="viewport" transform="translate(0,-100)">


<title>SVG Image</title>
<desc></desc>


<defs>
<!-- section for CSS stylesheet definitions -->
<style type="text/css"><![CDATA[
.allText {font-family:Sans-Serif;fill:darkcyan;}
.subTitleText {font-size:20;font-weight:bold;}
.normalText {font-size:15;}
.smallText {font-size:12;}
.boldText {font-weight:bold;}
.rightText {text-anchor:end;}
.centerText {text-anchor:middle;}
.dragRect {fill:darkcyan;stroke:none;opacity:0.4;}
]]></style>
<symbol id="upArrow" overflow="visible" style="stroke:darkcyan;fill:darkcyan;stroke-width:1;" pointer-events="none">
<polygon points="5,0 10,5 0,5 5,0" />
</symbol>
<symbol id="leftArrow" overflow="visible" style="stroke:darkcyan;fill:darkcyan;stroke-width:1;" pointer-events="none">
<polygon points="0,5 5,0 5,10 0,5" />
</symbol>
<symbol id="rightArrow" overflow="visible" style="stroke:darkcyan;fill:darkcyan;stroke-width:1;" pointer-events="none">
<polygon points="5,0 10,5 5,10 5,0" />
</symbol>
<symbol id="downArrow" overflow="visible" style="stroke:darkcyan;fill:darkcyan;stroke-width:1;" pointer-events="none">
<polygon points="0,0 5,5 10,0 0,0" />
</symbol>

</defs>
<svg id="mainMap" x="0" y="150" viewBox="0 0 922 617" width="912" height="512">


<clipPath id="SVG_Clip">
<rect x="0" y="0" width="922" height="617" />
</clipPath>
<g id="hds_models" style="clip-path:url(#SVG_Clip)">
<polyline id="r0"  stroke="rgb(0,255,255)" fill="rgb(0,255,255)" stroke-width="1px" stroke-dasharray="" points="567, 100,592, 117,592, 133,567, 150,567, 100,567, 100" /> 
<polyline id="r0"  stroke="rgb(102,102,102)" fill="none" stroke-width="1px" stroke-dasharray="" points="567, 100,592, 117,592, 133,567, 150,567, 100,567, 100" /> 
<polyline id="r0"  stroke="rgb(0,0,0)" fill="none" stroke-width="1px" stroke-dasharray="" points="567, 150,567, 150" /> 
<polyline id="r0"  stroke="rgb(0,0,0)" fill="none" stroke-width="1px" stroke-dasharray="" points="567, 100,567, 100" /> 
<polyline id="r0"  stroke="rgb(0,255,255)" fill="rgb(0,255,255)" stroke-width="1px" stroke-dasharray="" points="567, 275,592, 292,592, 308,567, 325,567, 275,567, 275" /> 
<polyline id="r0"  stroke="rgb(102,102,102)" fill="none" stroke-width="1px" stroke-dasharray="" points="567, 275,592, 292,592, 308,567, 325,567, 275,567, 275" /> 
<polyline id="r0"  stroke="rgb(0,0,0)" fill="none" stroke-width="1px" stroke-dasharray="" points="567, 325,567, 325" /> 
<polyline id="r0"  stroke="rgb(0,0,0)" fill="none" stroke-width="1px" stroke-dasharray="" points="567, 275,567, 275" /> 
<polyline id="r0"  stroke="rgb(0,255,255)" fill="rgb(0,255,255)" stroke-width="1px" stroke-dasharray="" points="567, 400,592, 417,592, 433,567, 450,567, 400,567, 400" /> 
<polyline id="r0"  stroke="rgb(102,102,102)" fill="none" stroke-width="1px" stroke-dasharray="" points="567, 400,592, 417,592, 433,567, 450,567, 400,567, 400" /> 
<polyline id="r0"  stroke="rgb(0,0,0)" fill="none" stroke-width="1px" stroke-dasharray="" points="567, 450,567, 450" /> 
<polyline id="r0"  stroke="rgb(0,0,0)" fill="none" stroke-width="1px" stroke-dasharray="" points="567, 400,567, 400" /> 
<polyline id="r0"  stroke="rgb(0,0,128)" fill="rgb(0,0,128)" stroke-width="1px" stroke-dasharray="" points="30, 108,42, 108,48, 112,42, 117,30, 117,30, 108" /> 
<polyline id="r0"  stroke="rgb(0,0,0)" fill="none" stroke-width="1px" stroke-dasharray="" points="30, 108,42, 108,48, 112,42, 117,30, 117,30, 108" /> 
<polyline id="r0"  stroke="rgb(0,0,128)" fill="rgb(0,0,128)" stroke-width="1px" stroke-dasharray="" points="30, 108,42, 108,48, 112,42, 117,30, 117,30, 108" /> 
<polyline id="r0"  stroke="rgb(0,0,0)" fill="none" stroke-width="1px" stroke-dasharray="" points="30, 108,42, 108,48, 112,42, 117,30, 117,30, 108" /> 
<polyline id="r0"  stroke="rgb(0,0,0)" fill="none" stroke-width="1px" stroke-dasharray="" points="48, 112,55, 112" /> 
<polyline id="r0"  stroke="rgb(0,0,128)" fill="rgb(0,0,128)" stroke-width="1px" stroke-dasharray="" points="811, 383,823, 383,829, 387,823, 392,811, 392,811, 383" /> 
<polyline id="r0"  stroke="rgb(0,0,0)" fill="none" stroke-width="1px" stroke-dasharray="" points="811, 383,823, 383,829, 387,823, 392,811, 392,811, 383" /> 
<polyline id="r0"  stroke="rgb(0,0,128)" fill="rgb(0,0,128)" stroke-width="1px" stroke-dasharray="" points="811, 383,823, 383,829, 387,823, 392,811, 392,811, 383" /> 
<polyline id="r0"  stroke="rgb(0,0,0)" fill="none" stroke-width="1px" stroke-dasharray="" points="811, 383,823, 383,829, 387,823, 392,811, 392,811, 383" /> 
<polyline id="r0"  stroke="rgb(0,0,0)" fill="none" stroke-width="1px" stroke-dasharray="" points="804, 387,811, 387" /> 
<polyline id="r0"  stroke="rgb(0,0,128)" fill="rgb(0,0,128)" stroke-width="1px" stroke-dasharray="" points="67, 458,80, 458,86, 462,80, 467,67, 467,67, 458" /> 
<polyline id="r0"  stroke="rgb(0,0,0)" fill="none" stroke-width="1px" stroke-dasharray="" points="67, 458,80, 458,86, 462,80, 467,67, 467,67, 458" /> 
<polyline id="r0"  stroke="rgb(0,0,128)" fill="rgb(0,0,128)" stroke-width="1px" stroke-dasharray="" points="67, 458,80, 458,86, 462,80, 467,67, 467,67, 458" /> 
<polyline id="r0"  stroke="rgb(0,0,0)" fill="none" stroke-width="1px" stroke-dasharray="" points="67, 458,80, 458,86, 462,80, 467,67, 467,67, 458" /> 
<polyline id="r0"  stroke="rgb(0,0,0)" fill="none" stroke-width="1px" stroke-dasharray="" points="86, 462,92, 462" /> 
<polyline id="r0"  stroke="rgb(0,0,128)" fill="rgb(0,0,128)" stroke-width="1px" stroke-dasharray="" points="811, 120,823, 120,829, 125,823, 130,811, 130,811, 120" /> 
<polyline id="r0"  stroke="rgb(0,0,0)" fill="none" stroke-width="1px" stroke-dasharray="" points="811, 120,823, 120,829, 125,823, 130,811, 130,811, 120" /> 
<polyline id="r0"  stroke="rgb(0,0,128)" fill="rgb(0,0,128)" stroke-width="1px" stroke-dasharray="" points="811, 120,823, 120,829, 125,823, 130,811, 130,811, 120" /> 
<polyline id="r0"  stroke="rgb(0,0,0)" fill="none" stroke-width="1px" stroke-dasharray="" points="811, 120,823, 120,829, 125,823, 130,811, 130,811, 120" /> 
<polyline id="r0"  stroke="rgb(0,0,0)" fill="none" stroke-width="1px" stroke-dasharray="" points="804, 125,811, 125" /> 
<polyline id="r0"  stroke="rgb(0,0,128)" fill="rgb(0,0,128)" stroke-width="1px" stroke-dasharray="" points="823, 195,836, 195,842, 200,836, 205,823, 205,823, 195" /> 
<polyline id="r0"  stroke="rgb(0,0,0)" fill="none" stroke-width="1px" stroke-dasharray="" points="823, 195,836, 195,842, 200,836, 205,823, 205,823, 195" /> 
<polyline id="r0"  stroke="rgb(0,0,128)" fill="rgb(0,0,128)" stroke-width="1px" stroke-dasharray="" points="823, 195,836, 195,842, 200,836, 205,823, 205,823, 195" /> 
<polyline id="r0"  stroke="rgb(0,0,0)" fill="none" stroke-width="1px" stroke-dasharray="" points="823, 195,836, 195,842, 200,836, 205,823, 205,823, 195" /> 
<polyline id="r0"  stroke="rgb(0,0,0)" fill="none" stroke-width="1px" stroke-dasharray="" points="817, 200,823, 200" /> 
<rect id="r0"  stroke="rgb(254,254,179)" fill="rgb(254,254,179)" stroke-width="1px" stroke-dasharray="" y="600px" x="454px" width="213px" height="12px" rx="0" ry="0" />
<rect id="r0"  stroke="rgb(0,0,0)" fill="none" stroke-width="1px" stroke-dasharray="" y="600px" x="454px" width="213px" height="12px" rx="0" ry="0" />
<rect id="r0"  stroke="rgb(254,254,179)" fill="rgb(254,254,179)" stroke-width="1px" stroke-dasharray="" y="550px" x="667px" width="50px" height="12px" rx="0" ry="0" />
<rect id="r0"  stroke="rgb(0,0,0)" fill="none" stroke-width="1px" stroke-dasharray="" y="550px" x="667px" width="50px" height="12px" rx="0" ry="0" />
<rect id="r0"  stroke="rgb(254,254,179)" fill="rgb(254,254,179)" stroke-width="1px" stroke-dasharray="" y="575px" x="454px" width="213px" height="12px" rx="0" ry="0" />
<rect id="r0"  stroke="rgb(0,0,0)" fill="none" stroke-width="1px" stroke-dasharray="" y="575px" x="454px" width="213px" height="12px" rx="0" ry="0" />
<rect id="r0"  stroke="rgb(254,254,179)" fill="rgb(254,254,179)" stroke-width="1px" stroke-dasharray="" y="575px" x="404px" width="50px" height="12px" rx="0" ry="0" />
<rect id="r0"  stroke="rgb(0,0,0)" fill="none" stroke-width="1px" stroke-dasharray="" y="575px" x="404px" width="50px" height="12px" rx="0" ry="0" />
<rect id="r0"  stroke="rgb(254,254,179)" fill="rgb(254,254,179)" stroke-width="1px" stroke-dasharray="" y="562px" x="667px" width="250px" height="50px" rx="0" ry="0" />
<rect id="r0"  stroke="rgb(0,0,0)" fill="none" stroke-width="1px" stroke-dasharray="" y="562px" x="667px" width="250px" height="50px" rx="0" ry="0" />
<rect id="r0"  stroke="rgb(254,254,179)" fill="rgb(254,254,179)" stroke-width="1px" stroke-dasharray="" y="550px" x="717px" width="200px" height="12px" rx="0" ry="0" />
<rect id="r0"  stroke="rgb(0,0,0)" fill="none" stroke-width="1px" stroke-dasharray="" y="550px" x="717px" width="200px" height="12px" rx="0" ry="0" />
<rect id="r0"  stroke="rgb(254,254,179)" fill="rgb(254,254,179)" stroke-width="1px" stroke-dasharray="" y="550px" x="404px" width="263px" height="25px" rx="0" ry="0" />
<rect id="r0"  stroke="rgb(0,0,0)" fill="none" stroke-width="1px" stroke-dasharray="" y="550px" x="404px" width="263px" height="25px" rx="0" ry="0" />
<rect id="r0"  stroke="rgb(254,254,179)" fill="rgb(254,254,179)" stroke-width="1px" stroke-dasharray="" y="587px" x="404px" width="50px" height="13px" rx="0" ry="0" />
<rect id="r0"  stroke="rgb(0,0,0)" fill="none" stroke-width="1px" stroke-dasharray="" y="587px" x="404px" width="50px" height="13px" rx="0" ry="0" />
<rect id="r0"  stroke="rgb(254,254,179)" fill="rgb(254,254,179)" stroke-width="1px" stroke-dasharray="" y="600px" x="404px" width="50px" height="12px" rx="0" ry="0" />
<rect id="r0"  stroke="rgb(0,0,0)" fill="none" stroke-width="1px" stroke-dasharray="" y="600px" x="404px" width="50px" height="12px" rx="0" ry="0" />
<rect id="r0"  stroke="rgb(254,254,179)" fill="rgb(254,254,179)" stroke-width="1px" stroke-dasharray="" y="587px" x="454px" width="213px" height="13px" rx="0" ry="0" />
<rect id="r0"  stroke="rgb(0,0,0)" fill="none" stroke-width="1px" stroke-dasharray="" y="587px" x="454px" width="213px" height="13px" rx="0" ry="0" />
<a xlink:href='javascript:parent.location.href="../../alien_game_lib/c2_t1_hello_led/struct_bd.htm"'>
<rect id="r0"  stroke="rgb(0,255,0)" fill="rgb(0,255,0)" stroke-width="1px" stroke-dasharray="" y="101px" x="230px" width="187px" height="174px" rx="0" ry="0" />
</a>
<rect id="r0"  stroke="rgb(0,128,0)" fill="none" stroke-width="3px" stroke-dasharray="" y="101px" x="230px" width="187px" height="174px" rx="0" ry="0" />
<a xlink:href='javascript:parent.location.href="../../alien_game_lib/c2_t1_hello_led/struct_bd.htm"'>
<image xlink:href="BlockDiagram.png" x="233" y="253" width="18" height="19" />
</a>
<a xlink:href='javascript:parent.location.href="../../alien_game_lib/c2_t1_hello_led_static/struct_bd.htm"'>
<rect id="r0"  stroke="rgb(0,255,0)" fill="rgb(0,255,0)" stroke-width="1px" stroke-dasharray="" y="288px" x="205px" width="212px" height="162px" rx="0" ry="0" />
</a>
<rect id="r0"  stroke="rgb(0,128,0)" fill="none" stroke-width="3px" stroke-dasharray="" y="288px" x="205px" width="212px" height="162px" rx="0" ry="0" />
<a xlink:href='javascript:parent.location.href="../../alien_game_lib/c2_t1_hello_led_static/struct_bd.htm"'>
<image xlink:href="BlockDiagram.png" x="208" y="428" width="18" height="19" />
</a>
<polyline id="r0"  stroke="rgb(0,0,0)" fill="none" stroke-width="1px" stroke-dasharray="" points="48, 112,55, 112" /> 
<polyline id="r0"  stroke="rgb(0,0,0)" fill="none" stroke-width="1px" stroke-dasharray="" points="804, 387,811, 387" /> 
<polyline id="r0"  stroke="rgb(0,0,0)" fill="none" stroke-width="1px" stroke-dasharray="" points="86, 462,92, 462" /> 
<polyline id="r0"  stroke="rgb(0,0,0)" fill="none" stroke-width="1px" stroke-dasharray="" points="804, 125,811, 125" /> 
<polyline id="r0"  stroke="rgb(0,0,0)" fill="none" stroke-width="1px" stroke-dasharray="" points="817, 200,823, 200" /> 
<a xlink:href='javascript:parent.location.href="../../alien_game_lib/c2_t1_hello_led/struct_bd.htm"'>
<polyline id="r0"  stroke="rgb(0,255,0)" fill="rgb(0,255,0)" stroke-width="1px" stroke-dasharray="" points="426, 112,417, 117,417, 108,426, 112" /> 
</a>
<polyline id="r0"  stroke="rgb(0,0,0)" fill="none" stroke-width="1px" stroke-dasharray="" points="426, 112,417, 117,417, 108,426, 112" /> 
<a xlink:href='javascript:parent.location.href="../../alien_game_lib/c2_t1_hello_led/struct_bd.htm"'>
<polyline id="r0"  stroke="rgb(0,255,0)" fill="rgb(0,255,0)" stroke-width="1px" stroke-dasharray="" points="426, 125,417, 130,417, 120,426, 125" /> 
</a>
<polyline id="r0"  stroke="rgb(0,0,0)" fill="none" stroke-width="1px" stroke-dasharray="" points="426, 125,417, 130,417, 120,426, 125" /> 
<a xlink:href='javascript:parent.location.href="../../alien_game_lib/c2_t1_hello_led/struct_bd.htm"'>
<polyline id="r0"  stroke="rgb(0,255,0)" fill="rgb(0,255,0)" stroke-width="1px" stroke-dasharray="" points="426, 137,417, 142,417, 133,426, 137" /> 
</a>
<polyline id="r0"  stroke="rgb(0,0,0)" fill="none" stroke-width="1px" stroke-dasharray="" points="426, 137,417, 142,417, 133,426, 137" /> 
<a xlink:href='javascript:parent.location.href="../../alien_game_lib/c2_t1_hello_led/struct_bd.htm"'>
<polyline id="r0"  stroke="rgb(0,255,0)" fill="rgb(0,255,0)" stroke-width="1px" stroke-dasharray="" points="229, 112,220, 117,220, 108,229, 112" /> 
</a>
<polyline id="r0"  stroke="rgb(0,0,0)" fill="none" stroke-width="1px" stroke-dasharray="" points="229, 112,220, 117,220, 108,229, 112" /> 
<a xlink:href='javascript:parent.location.href="../../alien_game_lib/c2_t1_hello_led_static/struct_bd.htm"'>
<polyline id="r0"  stroke="rgb(0,255,0)" fill="rgb(0,255,0)" stroke-width="1px" stroke-dasharray="" points="426, 300,417, 305,417, 295,426, 300" /> 
</a>
<polyline id="r0"  stroke="rgb(0,0,0)" fill="none" stroke-width="1px" stroke-dasharray="" points="426, 300,417, 305,417, 295,426, 300" /> 
<a xlink:href='javascript:parent.location.href="../../alien_game_lib/c2_t1_hello_led_static/struct_bd.htm"'>
<polyline id="r0"  stroke="rgb(0,255,0)" fill="rgb(0,255,0)" stroke-width="1px" stroke-dasharray="" points="426, 312,417, 317,417, 308,426, 312" /> 
</a>
<polyline id="r0"  stroke="rgb(0,0,0)" fill="none" stroke-width="1px" stroke-dasharray="" points="426, 312,417, 317,417, 308,426, 312" /> 
<a xlink:href='javascript:parent.location.href="../../alien_game_lib/c2_t1_hello_led_static/struct_bd.htm"'>
<polyline id="r0"  stroke="rgb(0,255,0)" fill="rgb(0,255,0)" stroke-width="1px" stroke-dasharray="" points="426, 325,417, 330,417, 320,426, 325" /> 
</a>
<polyline id="r0"  stroke="rgb(0,0,0)" fill="none" stroke-width="1px" stroke-dasharray="" points="426, 325,417, 330,417, 320,426, 325" /> 
<polyline id="r0"  stroke="rgb(0,0,0)" fill="none" stroke-width="3px" stroke-dasharray="" points="604, 125,592, 125" /> 
<polyline id="r0"  stroke="rgb(0,0,0)" fill="none" stroke-width="1px" stroke-dasharray="" points="579, 87,579, 108" /> 
<polyline id="r0"  stroke="rgb(0,0,0)" fill="none" stroke-width="3px" stroke-dasharray="" points="554, 112,567, 112" /> 
<polyline id="r0"  stroke="rgb(0,0,0)" fill="none" stroke-width="3px" stroke-dasharray="" points="554, 137,567, 137" /> 
<polyline id="r0"  stroke="rgb(0,0,0)" fill="none" stroke-width="3px" stroke-dasharray="" points="604, 300,592, 300" /> 
<polyline id="r0"  stroke="rgb(0,0,0)" fill="none" stroke-width="1px" stroke-dasharray="" points="579, 262,579, 283" /> 
<polyline id="r0"  stroke="rgb(0,0,0)" fill="none" stroke-width="3px" stroke-dasharray="" points="554, 287,567, 287" /> 
<polyline id="r0"  stroke="rgb(0,0,0)" fill="none" stroke-width="3px" stroke-dasharray="" points="554, 312,567, 312" /> 
<polyline id="r0"  stroke="rgb(0,0,0)" fill="none" stroke-width="3px" stroke-dasharray="" points="604, 425,592, 425" /> 
<polyline id="r0"  stroke="rgb(0,0,0)" fill="none" stroke-width="1px" stroke-dasharray="" points="579, 387,579, 408" /> 
<polyline id="r0"  stroke="rgb(0,0,0)" fill="none" stroke-width="3px" stroke-dasharray="" points="554, 412,567, 412" /> 
<polyline id="r0"  stroke="rgb(0,0,0)" fill="none" stroke-width="3px" stroke-dasharray="" points="554, 437,567, 437" /> 
<circle id="r0"  stroke="rgb(0,0,0)" fill="rgb(0,0,0)" stroke-width="1px" stroke-dasharray="" cx="654" cy="387" r="5"/> 
<circle stroke="rgb(0,0,0)" fill="none" stroke-width="1px" stroke-dasharray="" cx="654" cy="387" r="5"/> 
<circle id="r0"  stroke="rgb(0,0,0)" fill="rgb(0,0,0)" stroke-width="1px" stroke-dasharray="" cx="654" cy="250" r="5"/> 
<circle stroke="rgb(0,0,0)" fill="none" stroke-width="1px" stroke-dasharray="" cx="654" cy="250" r="5"/> 
<text x="342" y="32" font-family="Courier New" fill="rgb(0,0,0)" font-size="10" text-anchor="start">btn        : std_logic_vector(3 DOWNTO 0)</text>
<text x="342" y="52" font-family="Courier New" fill="rgb(0,0,0)" font-size="10" text-anchor="start">color_BGR  : std_logic_vector(23 DOWNTO 0)</text>
<text x="342" y="42" font-family="Courier New" fill="rgb(0,0,0)" font-size="10" text-anchor="start">sw0        : std_logic</text>
<text x="342" y="62" font-family="Courier New" fill="rgb(0,0,0)" font-size="10" text-anchor="start">x_coord    : std_logic_vector(7 DOWNTO 0)</text>
<text x="342" y="72" font-family="Courier New" fill="rgb(0,0,0)" font-size="10" text-anchor="start">y_coord    : std_logic_vector(7 DOWNTO 0)</text>
<text x="404" y="304" font-family="Arial" fill="rgb(0,0,0)" font-size="10" text-anchor="end">x_coord : (7:0)</text>
<text x="571" y="306" font-family="arial" fill="rgb(0,0,0)" font-size="10" text-anchor="start">mux</text>
<text x="342" y="115" font-family="Courier New" fill="rgb(0,0,0)" font-size="10" text-anchor="start">SIGNAL x_coord1   : std_logic_vector(7 DOWNTO 0)</text>
<text x="342" y="135" font-family="Courier New" fill="rgb(0,0,0)" font-size="10" text-anchor="start">SIGNAL y_coord1   : std_logic_vector(7 DOWNTO 0)</text>
<text x="342" y="95" font-family="Courier New" fill="rgb(0,0,0)" font-size="10" text-anchor="start">SIGNAL color_BGR1 : std_logic_vector(23 DOWNTO 0)</text>
<text x="342" y="105" font-family="Courier New" fill="rgb(0,0,0)" font-size="10" text-anchor="start">SIGNAL color_BGR2 : std_logic_vector(23 DOWNTO 0)</text>
<text x="342" y="145" font-family="Courier New" fill="rgb(0,0,0)" font-size="10" text-anchor="start">SIGNAL y_coord2   : std_logic_vector(7 DOWNTO 0)</text>
<text x="342" y="125" font-family="Courier New" fill="rgb(0,0,0)" font-size="10" text-anchor="start">SIGNAL x_coord2   : std_logic_vector(7 DOWNTO 0)</text>
<text x="451" y="297" font-family="Arial" fill="rgb(0,0,0)" font-size="10" text-anchor="start">x_coord2 : (7:0)</text>
<text x="67" y="10" font-family="arial" fill="rgb(0,0,0)" font-weight="800" font-size="10" text-anchor="start">Package List</text>
<text x="67" y="22" font-family="Arial" fill="rgb(0,0,0)" font-size="10" text-anchor="start">LIBRARY ieee;</text>
<text x="67" y="35" font-family="Arial" fill="rgb(0,0,0)" font-size="10" text-anchor="start">USE ieee.std_logic_1164.all;</text>
<text x="67" y="47" font-family="Arial" fill="rgb(0,0,0)" font-size="10" text-anchor="start">USE ieee.std_logic_arith.all;</text>
<text x="317" y="10" font-family="Arial" fill="rgb(0,0,0)" font-weight="800" font-size="10" text-anchor="start">Declarations</text>
<text x="317" y="22" font-family="Arial" fill="rgb(0,0,0)" font-weight="800" font-size="10" text-anchor="start">Ports:</text>
<text x="317" y="85" font-family="Arial" fill="rgb(0,0,0)" font-weight="800" font-size="10" text-anchor="start">Diagram Signals:</text>
<text x="17" y="116" font-family="Arial" fill="rgb(0,0,0)" font-size="10" text-anchor="end">btn</text>
<text x="319" y="222" font-family="Arial" fill="rgb(0,0,0)" font-weight="800" font-size="10" text-anchor="start">alien_game_lib</text>
<text x="319" y="235" font-family="Arial" fill="rgb(0,0,0)" font-weight="800" font-size="10" text-anchor="start">c2_t1_hello_led</text>
<text x="319" y="247" font-family="Arial" fill="rgb(0,0,0)" font-weight="800" font-size="10" text-anchor="start">U_0</text>
<text x="404" y="116" font-family="Arial" fill="rgb(0,0,0)" font-size="10" text-anchor="end">x_coord : (7:0)</text>
<text x="404" y="129" font-family="Arial" fill="rgb(0,0,0)" font-size="10" text-anchor="end">y_coord : (7:0)</text>
<text x="404" y="141" font-family="Arial" fill="rgb(0,0,0)" font-size="10" text-anchor="end">color_BGR : (23:0)</text>
<text x="242" y="116" font-family="Arial" fill="rgb(0,0,0)" font-size="10" text-anchor="start">btn : (3:0)</text>
<text x="842" y="129" font-family="Arial" fill="rgb(0,0,0)" font-size="10" text-anchor="start">x_coord</text>
<text x="854" y="204" font-family="Arial" fill="rgb(0,0,0)" font-size="10" text-anchor="start">y_coord</text>
<text x="584" y="174" font-family="arial" fill="rgb(0,0,0)" font-size="10" text-anchor="start">mux</text>
<text x="584" y="186" font-family="arial" fill="rgb(0,0,0)" font-size="10" text-anchor="start">U_2</text>
<text x="569" y="119" font-family="arial" fill="rgb(0,0,0)" font-size="10" text-anchor="start">Lo</text>
<text x="570" y="143" font-family="arial" fill="rgb(0,0,0)" font-size="10" text-anchor="start">Hi</text>
<text x="571" y="131" font-family="arial" fill="rgb(0,0,0)" font-size="10" text-anchor="start">mux</text>
<text x="569" y="294" font-family="arial" fill="rgb(0,0,0)" font-size="10" text-anchor="start">Lo</text>
<text x="0" y="0" font-family="Arial" fill="rgb(0,0,0)" transform="translate(566,247) rotate(270)" font-size="10" >sw0</text>
<text x="0" y="0" font-family="Arial" fill="rgb(0,0,0)" transform="translate(566,72) rotate(270)" font-size="10" >sw0</text>
<text x="451" y="110" font-family="Arial" fill="rgb(0,0,0)" font-size="10" text-anchor="start">x_coord1 : (7:0)</text>
<text x="451" y="122" font-family="Arial" fill="rgb(0,0,0)" font-size="10" text-anchor="start">y_coord1 : (7:0)</text>
<text x="451" y="135" font-family="Arial" fill="rgb(0,0,0)" font-size="10" text-anchor="start">color_BGR1 : (23:0)</text>
<text x="55" y="466" font-family="Arial" fill="rgb(0,0,0)" font-size="10" text-anchor="end">sw0</text>
<text x="407" y="585" font-family="Arial" fill="rgb(0,0,128)" font-size="10" text-anchor="start">Title:</text>
<text x="407" y="597" font-family="Arial" fill="rgb(0,0,128)" font-size="10" text-anchor="start">Path:</text>
<text x="407" y="610" font-family="Arial" fill="rgb(0,0,128)" font-size="10" text-anchor="start">Edited:</text>
<text x="294" y="410" font-family="Arial" fill="rgb(0,0,0)" font-weight="800" font-size="10" text-anchor="start">alien_game_lib</text>
<text x="294" y="422" font-family="Arial" fill="rgb(0,0,0)" font-weight="800" font-size="10" text-anchor="start">c2_t1_hello_led_static</text>
<text x="294" y="435" font-family="Arial" fill="rgb(0,0,0)" font-weight="800" font-size="10" text-anchor="start">U_1</text>
<text x="404" y="316" font-family="Arial" fill="rgb(0,0,0)" font-size="10" text-anchor="end">y_coord : (7:0)</text>
<text x="404" y="329" font-family="Arial" fill="rgb(0,0,0)" font-size="10" text-anchor="end">color_BGR : (23:0)</text>
<text x="842" y="391" font-family="Arial" fill="rgb(0,0,0)" font-size="10" text-anchor="start">color_BGR</text>
<text x="457" y="610" font-family="Arial" fill="rgb(0,0,128)" font-size="10" text-anchor="start">by koistin3 on 22 syys 2023</text>
<text x="669" y="560" font-family="Arial" fill="rgb(0,0,128)" font-size="10" text-anchor="start">Project:</text>
<text x="457" y="585" font-family="Arial" fill="rgb(0,0,128)" font-size="10" text-anchor="start">&#0060;enter diagram title here&#0062;</text>
<text x="669" y="575" font-family="Arial" fill="rgb(0,0,128)" font-size="10" text-anchor="start">&#0060;enter comments here&#0062;</text>
<text x="719" y="560" font-family="Arial" fill="rgb(0,0,128)" font-size="10" text-anchor="start">alien_game</text>
<text x="536" y="566" font-family="Arial" fill="rgb(127,0,0)" font-size="10" text-anchor="middle">&#0060;company name&#0062;</text>
<text x="457" y="597" font-family="Arial" fill="rgb(0,0,128)" font-size="10" text-anchor="start">  &#0060;&#0060;-- more --&#0062;&#0062;</text>
<text x="584" y="349" font-family="arial" fill="rgb(0,0,0)" font-size="10" text-anchor="start">mux</text>
<text x="584" y="361" font-family="arial" fill="rgb(0,0,0)" font-size="10" text-anchor="start">U_3</text>
<text x="570" y="318" font-family="arial" fill="rgb(0,0,0)" font-size="10" text-anchor="start">Hi</text>
<text x="584" y="474" font-family="arial" fill="rgb(0,0,0)" font-size="10" text-anchor="start">mux</text>
<text x="584" y="486" font-family="arial" fill="rgb(0,0,0)" font-size="10" text-anchor="start">U_4</text>
<text x="569" y="419" font-family="arial" fill="rgb(0,0,0)" font-size="10" text-anchor="start">Lo</text>
<text x="570" y="443" font-family="arial" fill="rgb(0,0,0)" font-size="10" text-anchor="start">Hi</text>
<text x="571" y="431" font-family="arial" fill="rgb(0,0,0)" font-size="10" text-anchor="start">mux</text>
<text x="451" y="322" font-family="Arial" fill="rgb(0,0,0)" font-size="10" text-anchor="start">color_BGR2 : (23:0)</text>
<text x="451" y="310" font-family="Arial" fill="rgb(0,0,0)" font-size="10" text-anchor="start">y_coord2 : (7:0)</text>
<g id="btn_net" stroke="rgb(0,0,0)" stroke-width="3px"  >
<polyline id="r0"  fill="none"  stroke-dasharray="" points="55, 112,220, 112" /> 
</g>
<g id="color_BGR_net" stroke="rgb(0,0,0)" stroke-width="3px"  >
<polyline id="r0"  fill="none"  stroke-dasharray="" points="804, 387,679, 387,679, 425,604, 425" /> 
</g>
<g id="color_BGR1_net" stroke="rgb(0,0,0)" stroke-width="3px"  >
<polyline id="r0"  fill="none"  stroke-dasharray="" points="426, 137,467, 137,467, 437,554, 437" /> 
</g>
<g id="color_BGR2_net" stroke="rgb(0,0,0)" stroke-width="3px"  >
<polyline id="r0"  fill="none"  stroke-dasharray="" points="426, 325,479, 325,479, 412,554, 412" /> 
</g>
<g id="sw0_net" stroke="rgb(0,0,0)" stroke-width="1px"  >
<polyline id="r0"  fill="none"  stroke-dasharray="" points="92, 462,654, 462,654, 387,579, 387" /> 
<polyline id="r0"  fill="none"  stroke-dasharray="" points="654, 387,654, 250,579, 250,579, 262" /> 
<polyline id="r0"  fill="none"  stroke-dasharray="" points="654, 250,654, 75,579, 75,579, 87" /> 
</g>
<g id="x_coord_net" stroke="rgb(0,0,0)" stroke-width="3px"  >
<polyline id="r0"  fill="none"  stroke-dasharray="" points="804, 125,604, 125" /> 
</g>
<g id="x_coord1_net" stroke="rgb(0,0,0)" stroke-width="3px"  >
<polyline id="r0"  fill="none"  stroke-dasharray="" points="426, 112,479, 112,479, 137,554, 137" /> 
</g>
<g id="x_coord2_net" stroke="rgb(0,0,0)" stroke-width="3px"  >
<polyline id="r0"  fill="none"  stroke-dasharray="" points="426, 300,529, 300,529, 112,554, 112" /> 
</g>
<g id="y_coord_net" stroke="rgb(0,0,0)" stroke-width="3px"  >
<polyline id="r0"  fill="none"  stroke-dasharray="" points="817, 200,692, 200,692, 300,604, 300" /> 
</g>
<g id="y_coord1_net" stroke="rgb(0,0,0)" stroke-width="3px"  >
<polyline id="r0"  fill="none"  stroke-dasharray="" points="426, 125,504, 125,504, 312,554, 312" /> 
</g>
<g id="y_coord2_net" stroke="rgb(0,0,0)" stroke-width="3px"  >
<polyline id="r0"  fill="none"  stroke-dasharray="" points="426, 312,454, 312,454, 287,554, 287" /> 
</g>
</g>
</svg>
<!-- Create a "titlebox" group so we can reposition it when the SVG moves -->
<g id="titlebox">
<g id="genTime" class="allText normalText">
  <text class="allText smallText" x="300" y="123">Generated on: 23/09/2023 at:  3:31 pm</text>
</g>

<rect stroke="none" fill="rgb(200,230,240)" opacity="0.4" y="112" x="0" width="914" height="15" />
<!-- Close the "titlebox" group -->
</g>

</g>
</svg>
